PathFileType  4	(X/Y/Z) C:\Users\antoi\Documents\MyRepositories\mobilecap\ResultsAnalysis
DataRate	CameraRate	NumFrames	NumMarkers	Units	OrigDataRate	OrigDataStartFrame	OrigNumFrames
100.0	100.0	4	51	mm	100.0	62	163
Frame#	Time	r_knee			r_shank_antsup			r_ankle			r_calc			r_5meta			r_toe			L_knee			L_shank_antsup			L_ankle			L_calc			L_5meta			L_toe			r_sh2			r_sh3			r_sh4			L_sh2			L_sh3			r_thigh1			r_thigh2			r_thigh3			r_thigh4			r_thigh5			L_thigh1			L_thigh2			L_thigh3			L_thigh4			r.ASIS			r.PSIS			L.ASIS			L.PSIS			C7			R_Shoulder			L_Shoulder			R_Sternum			L_Sternum			R_humerus			R_elbow_med			R_elbow_lat			R_forearm			R_wrist_radius			R_wrist_ulna			L_humerus			L_elbow_med			L_elbow_lat			L_forearm			L_wrist_radius			L_wrist_ulna			R_HJC			L_HJC			R_HJC_reg			L_HJC_reg			
		X1	Y1	Z1	X2	Y2	Z2	X3	Y3	Z3	X4	Y4	Z4	X5	Y5	Z5	X6	Y6	Z6	X7	Y7	Z7	X8	Y8	Z8	X9	Y9	Z9	X10	Y10	Z10	X11	Y11	Z11	X12	Y12	Z12	X13	Y13	Z13	X14	Y14	Z14	X15	Y15	Z15	X16	Y16	Z16	X17	Y17	Z17	X18	Y18	Z18	X19	Y19	Z19	X20	Y20	Z20	X21	Y21	Z21	X22	Y22	Z22	X23	Y23	Z23	X24	Y24	Z24	X25	Y25	Z25	X26	Y26	Z26	X27	Y27	Z27	X28	Y28	Z28	X29	Y29	Z29	X30	Y30	Z30	X31	Y31	Z31	X32	Y32	Z32	X33	Y33	Z33	X34	Y34	Z34	X35	Y35	Z35	X36	Y36	Z36	X37	Y37	Z37	X38	Y38	Z38	X39	Y39	Z39	X40	Y40	Z40	X41	Y41	Z41	X42	Y42	Z42	X43	Y43	Z43	X44	Y44	Z44	X45	Y45	Z45	X46	Y46	Z46	X47	Y47	Z47	X48	Y48	Z48	X49	Y49	Z49	X50	Y50	Z50	X51	Y51	Z51	

62	0.61000000	368.85943	544.00212	-159.40803	355.39793	412.45421	-172.93244	153.87531	130.37208	-203.01829	85.25403	109.60176	-255.73367	262.47389	29.49279	-148.02128	313.13981	54.34861	-214.18299	615.37496	523.16183	-493.92442	693.59435	449.99939	-494.83100	777.84921	95.80376	-495.57952	743.42041	50.63992	-432.29966	935.62212	94.54615	-540.12205	953.84614	142.73966	-483.00045	320.59334	307.01575	-196.37225	289.73255	423.96848	-133.60014	256.84807	311.87895	-140.20170	613.48171	412.53830	-514.01787	682.19894	314.76587	-539.00422	542.74457	734.85818	-165.91140	510.12301	628.47221	-181.43461	465.44360	610.27412	-134.01295	451.03175	750.12199	-100.30325	418.08421	638.08138	-122.51377	606.29343	780.62427	-511.57870	656.52408	652.49178	-502.98535	504.81600	737.76186	-532.75835	555.27346	608.74400	-518.40452	578.41753	1019.74261	-175.83533	373.33013	1067.20678	-256.47609	572.93990	999.96408	-441.60256	366.75332	1060.43443	-354.37973	482.26650	1559.99360	-307.53280	560.00320	1464.21533	-136.16509	520.95960	1506.51652	-494.86334	607.06787	1459.28071	-303.15957	600.78443	1460.24058	-350.38049	583.75691	1295.69989	-74.20963	512.25028	1069.22675	-96.48477	551.29008	1094.24655	-27.84192	670.49438	969.81436	-60.77152	727.26007	862.44391	-72.41244	707.20240	845.76915	-36.89298	461.54113	1346.31982	-585.65740	334.58065	1162.15343	-536.73292	346.75376	1179.99829	-615.22986	413.93277	1025.74046	-637.24867	410.68918	910.84947	-675.54508	368.99799	918.55539	-699.70724	488.11281	945.63022	-203.36723	483.00905	919.68486	-415.12032	500.03345	944.76503	-203.43117	488.27363	932.64653	-378.54531	
63	0.62000000	376.41298	543.82272	-158.98051	361.45492	412.21086	-172.32487	155.73596	133.09047	-202.45833	86.93806	113.52355	-255.20441	262.86357	29.33343	-147.88242	313.80219	54.13426	-213.89779	629.08690	522.51237	-494.32505	706.05429	447.60929	-494.42099	782.81376	93.05689	-493.55319	746.31617	49.30284	-430.75226	940.39512	87.87209	-536.66972	959.70435	134.51469	-479.05416	325.13906	307.30120	-195.67115	295.64450	424.70854	-133.18253	261.23645	313.23774	-139.75598	625.42699	411.61378	-513.93690	692.27474	312.38205	-537.71290	551.39079	733.80002	-165.04622	518.34381	627.50234	-180.34120	473.30511	609.68209	-133.07963	459.26923	749.89159	-100.26256	426.13188	637.76459	-122.08961	620.19428	780.99908	-510.86479	671.19054	653.30952	-502.07078	519.12144	737.43419	-533.59202	570.56737	608.80716	-519.26269	588.71824	1018.60190	-175.88417	384.28778	1066.32388	-257.87073	584.59550	998.60301	-441.95266	378.20687	1059.25255	-355.67335	492.93535	1558.93177	-313.43824	570.54763	1465.23225	-140.71867	532.27708	1502.94410	-500.03315	617.92237	1458.31703	-307.56379	611.78527	1458.79233	-354.79925	593.75311	1297.03298	-77.27140	521.91275	1070.41639	-98.01752	560.47501	1096.02165	-29.49881	679.66354	971.34120	-61.74675	736.52470	863.96899	-72.82244	716.27827	847.41008	-37.19487	474.70145	1341.13482	-589.21205	348.65247	1156.67644	-539.48904	361.57565	1173.64082	-618.04800	428.88604	1019.28144	-637.77701	425.65739	903.85076	-674.65575	384.25611	911.41699	-699.43843	498.54472	944.58089	-203.96184	494.51965	918.41362	-415.71077	510.31157	943.98243	-203.70647	499.41312	931.30175	-379.03210	
64	0.63000000	384.40622	543.63944	-158.64947	367.91908	412.01258	-171.81529	157.86913	136.06068	-201.94982	88.89939	117.79808	-254.74407	263.32583	29.28081	-147.79196	314.51034	53.90529	-213.63688	642.42264	522.02688	-494.79768	718.32662	445.57496	-493.95041	787.58259	90.78113	-491.97925	748.76835	48.72924	-429.70425	944.77260	81.04967	-533.23759	965.35021	126.17418	-474.94365	329.90763	307.63527	-195.08384	301.94039	425.52743	-132.86791	265.96928	314.73089	-139.40661	637.26819	410.98377	-514.09530	702.36797	310.41320	-536.67598	560.30400	732.88973	-164.29801	526.88981	626.69086	-179.37383	481.55054	609.12865	-132.29686	467.72448	749.78887	-100.28847	434.52062	637.51862	-121.80726	634.24393	781.53182	-510.19604	685.80437	654.17533	-501.44808	533.50987	737.46839	-534.38172	585.64266	609.10405	-519.99947	599.20741	1017.58439	-176.00686	395.43331	1065.53067	-259.34152	596.47624	997.67971	-442.31435	389.86433	1058.26521	-357.04126	503.73633	1558.04077	-319.56985	581.25105	1466.52712	-145.48579	543.73419	1499.42478	-505.36046	628.94062	1457.57174	-312.14212	622.94008	1457.51245	-359.39940	603.79768	1298.65576	-80.44936	531.39746	1071.98142	-99.58518	569.52674	1098.14540	-31.17771	688.57917	973.07794	-62.65003	745.44284	865.66024	-73.10770	725.05879	849.21642	-37.44663	488.07989	1336.00251	-592.86736	363.04833	1151.19304	-542.32471	376.77470	1167.28303	-620.92965	444.21056	1012.84692	-638.33713	440.95832	896.87926	-673.76559	399.88903	904.31706	-699.19988	509.20695	943.63660	-204.71816	506.33392	917.48116	-416.48486	520.82876	943.34169	-204.13807	510.82601	930.28783	-379.63421	
65	0.64000000	392.88090	543.48325	-158.41771	374.80218	411.88420	-171.40885	160.32566	139.30652	-201.52215	91.19251	122.45970	-254.39318	263.85646	29.35657	-147.76486	315.24923	53.64166	-213.40270	655.24373	521.78633	-495.39833	730.42523	444.06858	-493.44615	792.36722	89.08672	-490.98735	751.17790	48.97572	-429.18784	948.93101	74.27623	-530.13899	970.91706	118.08172	-471.12619	334.93943	308.05026	-194.62230	308.68125	426.46781	-132.68590	271.08234	316.38492	-139.16597	649.06216	410.75708	-514.64176	712.66636	309.07019	-536.10849	569.52316	732.14095	-163.68690	535.79150	626.05716	-178.54531	490.21221	608.69000	-131.69479	476.42857	749.78948	-100.36094	443.25854	637.36944	-121.70180	648.16343	782.12102	-509.71659	699.97855	654.89824	-501.25059	547.64886	737.82505	-535.04780	600.02119	609.55905	-520.49664	609.89022	1016.72100	-176.16816	406.76094	1064.86276	-260.89369	608.62480	997.22982	-442.68608	401.72066	1057.54415	-358.51541	514.68004	1557.34852	-325.92558	592.09780	1468.12349	-150.45853	555.33394	1495.99737	-510.84768	640.12322	1457.07778	-316.88423	634.23196	1456.43303	-364.17084	613.87823	1300.59539	-83.74372	540.62792	1073.98671	-101.17848	578.47910	1100.64669	-32.88346	697.26259	975.04799	-63.49529	753.98173	867.52568	-73.28615	733.53551	851.22398	-37.65210	501.65963	1330.96028	-596.61326	377.75634	1145.74683	-545.19374	392.34014	1160.96540	-623.83394	459.90470	1006.47662	-638.90419	456.59492	889.98779	-672.87065	415.87846	897.29329	-698.96558	520.08774	942.83414	-205.63893	518.47406	916.93624	-417.44629	531.60831	942.81678	-204.72144	522.53823	929.64652	-380.37364	
